<mxfile host="app.diagrams.net" modified="2023-12-15T21:09:32.124Z" agent="Mozilla/5.0 (Windows NT 10.0; Win64; x64) AppleWebKit/537.36 (KHTML, like Gecko) Chrome/120.0.0.0 Safari/537.36" etag="tKy7NwIe-7KWAHFOhCsB" version="22.1.9" type="google" pages="12">
  <diagram name="UC1" id="2YBvvXClWsGukQMizWep">
    <mxGraphModel grid="1" page="1" gridSize="10" guides="1" tooltips="1" connect="1" arrows="1" fold="1" pageScale="1" pageWidth="850" pageHeight="1100" math="0" shadow="0">
      <root>
        <mxCell id="0" />
        <mxCell id="1" parent="0" />
        <mxCell id="VD97KfXKwqrtf6IY7ygM-1" value=":System" style="shape=umlLifeline;perimeter=lifelinePerimeter;whiteSpace=wrap;html=1;container=0;dropTarget=0;collapsible=0;recursiveResize=0;outlineConnect=0;portConstraint=eastwest;newEdgeStyle={&quot;edgeStyle&quot;:&quot;elbowEdgeStyle&quot;,&quot;elbow&quot;:&quot;vertical&quot;,&quot;curved&quot;:0,&quot;rounded&quot;:0};" vertex="1" parent="1">
          <mxGeometry x="376" y="100" width="100" height="370" as="geometry" />
        </mxCell>
        <mxCell id="VD97KfXKwqrtf6IY7ygM-2" value="availableTimes" style="html=1;verticalAlign=bottom;endArrow=open;dashed=1;endSize=8;edgeStyle=elbowEdgeStyle;elbow=vertical;curved=0;rounded=0;" edge="1" parent="1">
          <mxGeometry relative="1" as="geometry">
            <mxPoint x="200" y="230" as="targetPoint" />
            <Array as="points">
              <mxPoint x="346" y="230" />
            </Array>
            <mxPoint x="421" y="230" as="sourcePoint" />
          </mxGeometry>
        </mxCell>
        <mxCell id="VD97KfXKwqrtf6IY7ygM-3" value="UC1: Schedule Appointment&lt;br&gt;Sequence Diagram" style="text;html=1;strokeColor=none;fillColor=none;align=center;verticalAlign=middle;whiteSpace=wrap;rounded=0;fontStyle=1" vertex="1" parent="1">
          <mxGeometry x="310" y="30" width="230" height="30" as="geometry" />
        </mxCell>
        <mxCell id="VD97KfXKwqrtf6IY7ygM-4" value="Service Requester" style="shape=umlActor;verticalLabelPosition=bottom;verticalAlign=top;html=1;outlineConnect=0;" vertex="1" parent="1">
          <mxGeometry x="187" y="80" width="30" height="60" as="geometry" />
        </mxCell>
        <mxCell id="VD97KfXKwqrtf6IY7ygM-5" value="" style="endArrow=none;dashed=1;html=1;rounded=0;" edge="1" parent="1">
          <mxGeometry width="50" height="50" relative="1" as="geometry">
            <mxPoint x="200" y="470" as="sourcePoint" />
            <mxPoint x="202.51612903225805" y="140" as="targetPoint" />
          </mxGeometry>
        </mxCell>
        <mxCell id="VD97KfXKwqrtf6IY7ygM-6" value="getAvailableTimes()" style="html=1;verticalAlign=bottom;endArrow=block;edgeStyle=elbowEdgeStyle;elbow=vertical;curved=0;rounded=0;" edge="1" parent="1">
          <mxGeometry relative="1" as="geometry">
            <mxPoint x="200" y="200" as="sourcePoint" />
            <Array as="points">
              <mxPoint x="365" y="200" />
            </Array>
            <mxPoint x="420" y="200" as="targetPoint" />
            <mxPoint as="offset" />
          </mxGeometry>
        </mxCell>
        <mxCell id="VD97KfXKwqrtf6IY7ygM-7" value="selectAvailableTime(availableTime)" style="html=1;verticalAlign=bottom;endArrow=block;edgeStyle=elbowEdgeStyle;elbow=vertical;curved=0;rounded=0;" edge="1" parent="1">
          <mxGeometry relative="1" as="geometry">
            <mxPoint x="200" y="260" as="sourcePoint" />
            <Array as="points">
              <mxPoint x="365" y="260" />
            </Array>
            <mxPoint x="425.5" y="260" as="targetPoint" />
            <mxPoint as="offset" />
          </mxGeometry>
        </mxCell>
        <mxCell id="VD97KfXKwqrtf6IY7ygM-8" value="pendingScheduledAppointment" style="html=1;verticalAlign=bottom;endArrow=open;dashed=1;endSize=8;edgeStyle=elbowEdgeStyle;elbow=vertical;curved=0;rounded=0;" edge="1" parent="1" source="VD97KfXKwqrtf6IY7ygM-1">
          <mxGeometry relative="1" as="geometry">
            <mxPoint x="200" y="381" as="targetPoint" />
            <Array as="points">
              <mxPoint x="285" y="381" />
            </Array>
            <mxPoint x="360" y="381" as="sourcePoint" />
          </mxGeometry>
        </mxCell>
        <mxCell id="VD97KfXKwqrtf6IY7ygM-9" value="requestMoreInfo()" style="html=1;verticalAlign=bottom;endArrow=block;edgeStyle=elbowEdgeStyle;elbow=vertical;curved=0;rounded=0;" edge="1" parent="1">
          <mxGeometry relative="1" as="geometry">
            <mxPoint x="425.5" y="287" as="sourcePoint" />
            <Array as="points">
              <mxPoint x="365" y="287" />
            </Array>
            <mxPoint x="200" y="287" as="targetPoint" />
            <mxPoint as="offset" />
          </mxGeometry>
        </mxCell>
        <mxCell id="VD97KfXKwqrtf6IY7ygM-10" value="enterInfo(info)" style="html=1;verticalAlign=bottom;endArrow=block;edgeStyle=elbowEdgeStyle;elbow=vertical;curved=0;rounded=0;" edge="1" parent="1">
          <mxGeometry relative="1" as="geometry">
            <mxPoint x="200" y="317" as="sourcePoint" />
            <Array as="points">
              <mxPoint x="365" y="317" />
            </Array>
            <mxPoint x="426" y="317" as="targetPoint" />
            <mxPoint as="offset" />
          </mxGeometry>
        </mxCell>
        <mxCell id="VD97KfXKwqrtf6IY7ygM-11" value="confirm(info, AvailableTime)" style="html=1;verticalAlign=bottom;endArrow=block;edgeStyle=elbowEdgeStyle;elbow=vertical;curved=0;rounded=0;" edge="1" parent="1">
          <mxGeometry relative="1" as="geometry">
            <mxPoint x="200" y="350" as="sourcePoint" />
            <Array as="points">
              <mxPoint x="365" y="350" />
            </Array>
            <mxPoint x="426" y="350" as="targetPoint" />
            <mxPoint as="offset" />
          </mxGeometry>
        </mxCell>
        <mxCell id="VD97KfXKwqrtf6IY7ygM-12" style="edgeStyle=orthogonalEdgeStyle;rounded=0;orthogonalLoop=1;jettySize=auto;html=1;endArrow=none;endFill=0;dashed=1;" edge="1" parent="1">
          <mxGeometry relative="1" as="geometry">
            <mxPoint x="611" y="480" as="targetPoint" />
            <mxPoint x="611" y="160" as="sourcePoint" />
            <Array as="points">
              <mxPoint x="611" y="470" />
            </Array>
          </mxGeometry>
        </mxCell>
        <mxCell id="VD97KfXKwqrtf6IY7ygM-13" value="Service Provider" style="shape=umlActor;verticalLabelPosition=bottom;verticalAlign=top;html=1;outlineConnect=0;" vertex="1" parent="1">
          <mxGeometry x="595" y="80" width="30" height="60" as="geometry" />
        </mxCell>
        <mxCell id="VD97KfXKwqrtf6IY7ygM-14" value="pendingScheduledAppointment" style="html=1;verticalAlign=bottom;endArrow=open;dashed=1;endSize=8;edgeStyle=elbowEdgeStyle;elbow=vertical;curved=0;rounded=0;" edge="1" parent="1">
          <mxGeometry relative="1" as="geometry">
            <mxPoint x="609" y="416" as="targetPoint" />
            <Array as="points" />
            <mxPoint x="423" y="416" as="sourcePoint" />
          </mxGeometry>
        </mxCell>
      </root>
    </mxGraphModel>
  </diagram>
  <diagram id="UDp3BbspxIbq5vuASOOv" name="UC2">
    <mxGraphModel grid="1" page="1" gridSize="10" guides="1" tooltips="1" connect="1" arrows="1" fold="1" pageScale="1" pageWidth="1100" pageHeight="850" math="0" shadow="0">
      <root>
        <mxCell id="0" />
        <mxCell id="1" parent="0" />
        <mxCell id="OrfmIsBlfXUg0-121HTW-1" value=":System" style="shape=umlLifeline;perimeter=lifelinePerimeter;whiteSpace=wrap;html=1;container=0;dropTarget=0;collapsible=0;recursiveResize=0;outlineConnect=0;portConstraint=eastwest;newEdgeStyle={&quot;edgeStyle&quot;:&quot;elbowEdgeStyle&quot;,&quot;elbow&quot;:&quot;vertical&quot;,&quot;curved&quot;:0,&quot;rounded&quot;:0};" vertex="1" parent="1">
          <mxGeometry x="550" y="110" width="100" height="260" as="geometry" />
        </mxCell>
        <mxCell id="OrfmIsBlfXUg0-121HTW-2" value="filteredService" style="html=1;verticalAlign=bottom;endArrow=open;dashed=1;endSize=8;edgeStyle=elbowEdgeStyle;elbow=vertical;curved=0;rounded=0;" edge="1" parent="1">
          <mxGeometry relative="1" as="geometry">
            <mxPoint x="373" y="254" as="targetPoint" />
            <Array as="points">
              <mxPoint x="519" y="254" />
            </Array>
            <mxPoint x="594" y="254" as="sourcePoint" />
          </mxGeometry>
        </mxCell>
        <mxCell id="OrfmIsBlfXUg0-121HTW-3" value="UC2: Search Service&lt;br&gt;Sequence Diagram" style="text;html=1;strokeColor=none;fillColor=none;align=center;verticalAlign=middle;whiteSpace=wrap;rounded=0;fontStyle=1" vertex="1" parent="1">
          <mxGeometry x="374" y="40" width="230" height="30" as="geometry" />
        </mxCell>
        <mxCell id="OrfmIsBlfXUg0-121HTW-4" value="User" style="shape=umlActor;verticalLabelPosition=bottom;verticalAlign=top;html=1;outlineConnect=0;" vertex="1" parent="1">
          <mxGeometry x="361" y="90" width="30" height="60" as="geometry" />
        </mxCell>
        <mxCell id="OrfmIsBlfXUg0-121HTW-5" value="" style="endArrow=none;dashed=1;html=1;rounded=0;" edge="1" parent="1">
          <mxGeometry width="50" height="50" relative="1" as="geometry">
            <mxPoint x="377" y="370" as="sourcePoint" />
            <mxPoint x="376.51612903225805" y="150" as="targetPoint" />
          </mxGeometry>
        </mxCell>
        <mxCell id="OrfmIsBlfXUg0-121HTW-6" value="selectFilter(filters, service)" style="html=1;verticalAlign=bottom;endArrow=block;edgeStyle=elbowEdgeStyle;elbow=vertical;curved=0;rounded=0;" edge="1" parent="1">
          <mxGeometry relative="1" as="geometry">
            <mxPoint x="373" y="224" as="sourcePoint" />
            <Array as="points">
              <mxPoint x="538" y="224" />
            </Array>
            <mxPoint x="593" y="224" as="targetPoint" />
            <mxPoint as="offset" />
          </mxGeometry>
        </mxCell>
        <mxCell id="OrfmIsBlfXUg0-121HTW-7" value="selectService(Service)" style="html=1;verticalAlign=bottom;endArrow=block;edgeStyle=elbowEdgeStyle;elbow=vertical;curved=0;rounded=0;" edge="1" parent="1">
          <mxGeometry relative="1" as="geometry">
            <mxPoint x="374" y="307" as="sourcePoint" />
            <Array as="points">
              <mxPoint x="539" y="307" />
            </Array>
            <mxPoint x="599.5" y="307" as="targetPoint" />
            <mxPoint as="offset" />
          </mxGeometry>
        </mxCell>
        <mxCell id="OrfmIsBlfXUg0-121HTW-8" value="serviceDetails" style="html=1;verticalAlign=bottom;endArrow=open;dashed=1;endSize=8;edgeStyle=elbowEdgeStyle;elbow=vertical;curved=0;rounded=0;" edge="1" parent="1">
          <mxGeometry relative="1" as="geometry">
            <mxPoint x="374" y="330" as="targetPoint" />
            <Array as="points">
              <mxPoint x="459" y="330" />
            </Array>
            <mxPoint x="599.5" y="330" as="sourcePoint" />
          </mxGeometry>
        </mxCell>
        <mxCell id="OrfmIsBlfXUg0-121HTW-13" value="loop" style="shape=umlFrame;whiteSpace=wrap;html=1;pointerEvents=0;" vertex="1" parent="1">
          <mxGeometry x="280" y="180" width="370" height="94" as="geometry" />
        </mxCell>
        <mxCell id="OrfmIsBlfXUg0-121HTW-15" value="[more filters]" style="text;html=1;align=center;verticalAlign=middle;resizable=0;points=[];autosize=1;strokeColor=none;fillColor=none;" vertex="1" parent="1">
          <mxGeometry x="336" y="180" width="90" height="30" as="geometry" />
        </mxCell>
      </root>
    </mxGraphModel>
  </diagram>
  <diagram id="zXxCPmzazz-ZNmYcPLw1" name="UC3">
    <mxGraphModel grid="1" page="1" gridSize="10" guides="1" tooltips="1" connect="1" arrows="1" fold="1" pageScale="1" pageWidth="1100" pageHeight="850" math="0" shadow="0">
      <root>
        <mxCell id="0" />
        <mxCell id="1" parent="0" />
        <mxCell id="f5UC6HviHsqxEgAHXxGB-1" value=":System" style="shape=umlLifeline;perimeter=lifelinePerimeter;whiteSpace=wrap;html=1;container=0;dropTarget=0;collapsible=0;recursiveResize=0;outlineConnect=0;portConstraint=eastwest;newEdgeStyle={&quot;edgeStyle&quot;:&quot;elbowEdgeStyle&quot;,&quot;elbow&quot;:&quot;vertical&quot;,&quot;curved&quot;:0,&quot;rounded&quot;:0};" vertex="1" parent="1">
          <mxGeometry x="479" y="100" width="100" height="380" as="geometry" />
        </mxCell>
        <mxCell id="f5UC6HviHsqxEgAHXxGB-2" value="serviceDetails" style="html=1;verticalAlign=bottom;endArrow=open;dashed=1;endSize=8;edgeStyle=elbowEdgeStyle;elbow=vertical;curved=0;rounded=0;" edge="1" parent="1">
          <mxGeometry relative="1" as="geometry">
            <mxPoint x="302" y="244" as="targetPoint" />
            <Array as="points">
              <mxPoint x="448" y="244" />
            </Array>
            <mxPoint x="523" y="244" as="sourcePoint" />
          </mxGeometry>
        </mxCell>
        <mxCell id="f5UC6HviHsqxEgAHXxGB-3" value="UC3: Make Payment&lt;br&gt;Sequence Diagram" style="text;html=1;strokeColor=none;fillColor=none;align=center;verticalAlign=middle;whiteSpace=wrap;rounded=0;fontStyle=1" vertex="1" parent="1">
          <mxGeometry x="400" y="30" width="230" height="30" as="geometry" />
        </mxCell>
        <mxCell id="f5UC6HviHsqxEgAHXxGB-4" style="edgeStyle=orthogonalEdgeStyle;rounded=0;orthogonalLoop=1;jettySize=auto;html=1;exitX=0.5;exitY=0.5;exitDx=0;exitDy=0;exitPerimeter=0;endArrow=none;endFill=0;dashed=1;" edge="1" parent="1" source="f5UC6HviHsqxEgAHXxGB-5">
          <mxGeometry relative="1" as="geometry">
            <mxPoint x="304.8461538461538" y="480" as="targetPoint" />
          </mxGeometry>
        </mxCell>
        <mxCell id="f5UC6HviHsqxEgAHXxGB-5" value="Service Requester" style="shape=umlActor;verticalLabelPosition=bottom;verticalAlign=top;html=1;outlineConnect=0;" vertex="1" parent="1">
          <mxGeometry x="290" y="80" width="30" height="60" as="geometry" />
        </mxCell>
        <mxCell id="f5UC6HviHsqxEgAHXxGB-6" value="selectService()" style="html=1;verticalAlign=bottom;endArrow=block;edgeStyle=elbowEdgeStyle;elbow=vertical;curved=0;rounded=0;" edge="1" parent="1" target="f5UC6HviHsqxEgAHXxGB-1">
          <mxGeometry relative="1" as="geometry">
            <mxPoint x="302" y="214" as="sourcePoint" />
            <Array as="points">
              <mxPoint x="467" y="214" />
            </Array>
            <mxPoint x="522" y="214" as="targetPoint" />
            <mxPoint as="offset" />
          </mxGeometry>
        </mxCell>
        <mxCell id="f5UC6HviHsqxEgAHXxGB-7" value="makePayment(serviceDetails)" style="html=1;verticalAlign=bottom;endArrow=block;edgeStyle=elbowEdgeStyle;elbow=vertical;curved=0;rounded=0;" edge="1" parent="1">
          <mxGeometry relative="1" as="geometry">
            <mxPoint x="303" y="279" as="sourcePoint" />
            <Array as="points">
              <mxPoint x="468" y="279" />
            </Array>
            <mxPoint x="528.5" y="279" as="targetPoint" />
            <mxPoint as="offset" />
          </mxGeometry>
        </mxCell>
        <mxCell id="f5UC6HviHsqxEgAHXxGB-8" value="outstandingServiceFee" style="html=1;verticalAlign=bottom;endArrow=open;dashed=1;endSize=8;edgeStyle=elbowEdgeStyle;elbow=vertical;curved=0;rounded=0;" edge="1" parent="1">
          <mxGeometry relative="1" as="geometry">
            <mxPoint x="303" y="314" as="targetPoint" />
            <Array as="points">
              <mxPoint x="388" y="314" />
            </Array>
            <mxPoint x="528.5" y="314" as="sourcePoint" />
          </mxGeometry>
        </mxCell>
        <mxCell id="f5UC6HviHsqxEgAHXxGB-9" value="enter(paymentMethod)" style="html=1;verticalAlign=bottom;endArrow=block;edgeStyle=elbowEdgeStyle;elbow=vertical;curved=0;rounded=0;" edge="1" parent="1">
          <mxGeometry relative="1" as="geometry">
            <mxPoint x="305.25" y="350" as="sourcePoint" />
            <Array as="points">
              <mxPoint x="470.25" y="350" />
            </Array>
            <mxPoint x="530.75" y="350" as="targetPoint" />
            <mxPoint as="offset" />
          </mxGeometry>
        </mxCell>
        <mxCell id="f5UC6HviHsqxEgAHXxGB-10" value="confirmPaymentMethod(paymentMethod)" style="html=1;verticalAlign=bottom;endArrow=block;edgeStyle=elbowEdgeStyle;elbow=vertical;curved=0;rounded=0;" edge="1" parent="1">
          <mxGeometry relative="1" as="geometry">
            <mxPoint x="303" y="417" as="sourcePoint" />
            <Array as="points">
              <mxPoint x="468" y="417" />
            </Array>
            <mxPoint x="528.5" y="417" as="targetPoint" />
            <mxPoint as="offset" />
          </mxGeometry>
        </mxCell>
        <mxCell id="f5UC6HviHsqxEgAHXxGB-11" value="paymentMethod" style="html=1;verticalAlign=bottom;endArrow=open;dashed=1;endSize=8;edgeStyle=elbowEdgeStyle;elbow=vertical;curved=0;rounded=0;" edge="1" parent="1">
          <mxGeometry relative="1" as="geometry">
            <mxPoint x="303" y="384" as="targetPoint" />
            <Array as="points">
              <mxPoint x="388" y="384" />
            </Array>
            <mxPoint x="528.5" y="384" as="sourcePoint" />
          </mxGeometry>
        </mxCell>
        <mxCell id="f5UC6HviHsqxEgAHXxGB-12" value="paymentConfirmation" style="html=1;verticalAlign=bottom;endArrow=open;dashed=1;endSize=8;edgeStyle=elbowEdgeStyle;elbow=vertical;curved=0;rounded=0;" edge="1" parent="1">
          <mxGeometry relative="1" as="geometry">
            <mxPoint x="302" y="449" as="targetPoint" />
            <Array as="points">
              <mxPoint x="387" y="449" />
            </Array>
            <mxPoint x="527.5" y="449" as="sourcePoint" />
          </mxGeometry>
        </mxCell>
        <mxCell id="f5UC6HviHsqxEgAHXxGB-13" style="edgeStyle=orthogonalEdgeStyle;rounded=0;orthogonalLoop=1;jettySize=auto;html=1;endArrow=none;endFill=0;dashed=1;" edge="1" parent="1" source="f5UC6HviHsqxEgAHXxGB-14">
          <mxGeometry relative="1" as="geometry">
            <mxPoint x="724" y="480" as="targetPoint" />
          </mxGeometry>
        </mxCell>
        <mxCell id="f5UC6HviHsqxEgAHXxGB-14" value="Service Provider" style="shape=umlActor;verticalLabelPosition=bottom;verticalAlign=top;html=1;outlineConnect=0;" vertex="1" parent="1">
          <mxGeometry x="709" y="80" width="30" height="60" as="geometry" />
        </mxCell>
        <mxCell id="f5UC6HviHsqxEgAHXxGB-15" value="paymentConfirmation" style="html=1;verticalAlign=bottom;endArrow=open;dashed=1;endSize=8;edgeStyle=elbowEdgeStyle;elbow=vertical;curved=0;rounded=0;" edge="1" parent="1" source="f5UC6HviHsqxEgAHXxGB-1">
          <mxGeometry relative="1" as="geometry">
            <mxPoint x="719" y="470" as="targetPoint" />
            <Array as="points">
              <mxPoint x="618" y="470" />
            </Array>
            <mxPoint x="719" y="470" as="sourcePoint" />
          </mxGeometry>
        </mxCell>
      </root>
    </mxGraphModel>
  </diagram>
  <diagram id="nQsuidqeMxyjM-KwLWY1" name="UC4">
    <mxGraphModel grid="1" page="1" gridSize="10" guides="1" tooltips="1" connect="1" arrows="1" fold="1" pageScale="1" pageWidth="1100" pageHeight="850" math="0" shadow="0">
      <root>
        <mxCell id="0" />
        <mxCell id="1" parent="0" />
        <mxCell id="63FkkP3xpUlLaOeBa9vB-1" value=":System" style="shape=umlLifeline;perimeter=lifelinePerimeter;whiteSpace=wrap;html=1;container=0;dropTarget=0;collapsible=0;recursiveResize=0;outlineConnect=0;portConstraint=eastwest;newEdgeStyle={&quot;edgeStyle&quot;:&quot;elbowEdgeStyle&quot;,&quot;elbow&quot;:&quot;vertical&quot;,&quot;curved&quot;:0,&quot;rounded&quot;:0};" vertex="1" parent="1">
          <mxGeometry x="499" y="120" width="100" height="300" as="geometry" />
        </mxCell>
        <mxCell id="63FkkP3xpUlLaOeBa9vB-2" value="proposalDetails" style="html=1;verticalAlign=bottom;endArrow=open;dashed=1;endSize=8;edgeStyle=elbowEdgeStyle;elbow=vertical;curved=0;rounded=0;" edge="1" parent="1">
          <mxGeometry x="-0.0019" relative="1" as="geometry">
            <mxPoint x="322" y="264" as="targetPoint" />
            <Array as="points">
              <mxPoint x="468" y="264" />
            </Array>
            <mxPoint x="543" y="264" as="sourcePoint" />
            <mxPoint as="offset" />
          </mxGeometry>
        </mxCell>
        <mxCell id="63FkkP3xpUlLaOeBa9vB-3" value="UC4: Manage Proposal&lt;br&gt;Sequence Diagram" style="text;html=1;strokeColor=none;fillColor=none;align=center;verticalAlign=middle;whiteSpace=wrap;rounded=0;fontStyle=1" vertex="1" parent="1">
          <mxGeometry x="434" y="40" width="230" height="30" as="geometry" />
        </mxCell>
        <mxCell id="63FkkP3xpUlLaOeBa9vB-4" style="edgeStyle=orthogonalEdgeStyle;rounded=0;orthogonalLoop=1;jettySize=auto;html=1;exitX=0.5;exitY=0.5;exitDx=0;exitDy=0;exitPerimeter=0;endArrow=none;endFill=0;dashed=1;" edge="1" parent="1" source="63FkkP3xpUlLaOeBa9vB-5">
          <mxGeometry relative="1" as="geometry">
            <mxPoint x="325" y="420" as="targetPoint" />
          </mxGeometry>
        </mxCell>
        <mxCell id="63FkkP3xpUlLaOeBa9vB-5" value="Service Provider" style="shape=umlActor;verticalLabelPosition=bottom;verticalAlign=top;html=1;outlineConnect=0;" vertex="1" parent="1">
          <mxGeometry x="310" y="100" width="30" height="60" as="geometry" />
        </mxCell>
        <mxCell id="63FkkP3xpUlLaOeBa9vB-6" value="selectProposal()" style="html=1;verticalAlign=bottom;endArrow=block;edgeStyle=elbowEdgeStyle;elbow=vertical;curved=0;rounded=0;" edge="1" parent="1" target="63FkkP3xpUlLaOeBa9vB-1">
          <mxGeometry relative="1" as="geometry">
            <mxPoint x="322" y="234" as="sourcePoint" />
            <Array as="points">
              <mxPoint x="487" y="234" />
            </Array>
            <mxPoint x="542" y="234" as="targetPoint" />
            <mxPoint as="offset" />
          </mxGeometry>
        </mxCell>
        <mxCell id="63FkkP3xpUlLaOeBa9vB-7" value="acceptProposal(proposalDetails)" style="html=1;verticalAlign=bottom;endArrow=block;edgeStyle=elbowEdgeStyle;elbow=vertical;curved=0;rounded=0;" edge="1" parent="1">
          <mxGeometry relative="1" as="geometry">
            <mxPoint x="323" y="299" as="sourcePoint" />
            <Array as="points">
              <mxPoint x="488" y="299" />
            </Array>
            <mxPoint x="548.5" y="299" as="targetPoint" />
            <mxPoint as="offset" />
          </mxGeometry>
        </mxCell>
        <mxCell id="63FkkP3xpUlLaOeBa9vB-8" value="proposalConfirmationMessage" style="html=1;verticalAlign=bottom;endArrow=open;dashed=1;endSize=8;edgeStyle=elbowEdgeStyle;elbow=vertical;curved=0;rounded=0;" edge="1" parent="1">
          <mxGeometry relative="1" as="geometry">
            <mxPoint x="323" y="334" as="targetPoint" />
            <Array as="points">
              <mxPoint x="408" y="334" />
            </Array>
            <mxPoint x="548.5" y="334" as="sourcePoint" />
          </mxGeometry>
        </mxCell>
        <mxCell id="63FkkP3xpUlLaOeBa9vB-9" value="approvedScheduledAppointment" style="html=1;verticalAlign=bottom;endArrow=open;dashed=1;endSize=8;edgeStyle=elbowEdgeStyle;elbow=vertical;curved=0;rounded=0;" edge="1" parent="1">
          <mxGeometry relative="1" as="geometry">
            <mxPoint x="323" y="372" as="targetPoint" />
            <Array as="points">
              <mxPoint x="408" y="372" />
            </Array>
            <mxPoint x="548.5" y="372" as="sourcePoint" />
          </mxGeometry>
        </mxCell>
        <mxCell id="63FkkP3xpUlLaOeBa9vB-10" style="edgeStyle=orthogonalEdgeStyle;rounded=0;orthogonalLoop=1;jettySize=auto;html=1;endArrow=none;endFill=0;dashed=1;" edge="1" parent="1" source="63FkkP3xpUlLaOeBa9vB-11">
          <mxGeometry relative="1" as="geometry">
            <mxPoint x="744" y="420" as="targetPoint" />
          </mxGeometry>
        </mxCell>
        <mxCell id="63FkkP3xpUlLaOeBa9vB-11" value="Service Requester" style="shape=umlActor;verticalLabelPosition=bottom;verticalAlign=top;html=1;outlineConnect=0;" vertex="1" parent="1">
          <mxGeometry x="729" y="97" width="30" height="60" as="geometry" />
        </mxCell>
        <mxCell id="63FkkP3xpUlLaOeBa9vB-12" value="approvedScheduledAppointment" style="html=1;verticalAlign=bottom;endArrow=open;dashed=1;endSize=8;edgeStyle=elbowEdgeStyle;elbow=vertical;curved=0;rounded=0;" edge="1" parent="1" source="63FkkP3xpUlLaOeBa9vB-1">
          <mxGeometry relative="1" as="geometry">
            <mxPoint x="739" y="390" as="targetPoint" />
            <Array as="points">
              <mxPoint x="638" y="390" />
            </Array>
            <mxPoint x="778.5" y="390" as="sourcePoint" />
          </mxGeometry>
        </mxCell>
      </root>
    </mxGraphModel>
  </diagram>
  <diagram id="007-iKzaVh_9mEb1vbak" name="UC5">
    <mxGraphModel grid="1" page="1" gridSize="10" guides="1" tooltips="1" connect="1" arrows="1" fold="1" pageScale="1" pageWidth="1100" pageHeight="850" math="0" shadow="0">
      <root>
        <mxCell id="0" />
        <mxCell id="1" parent="0" />
        <mxCell id="ELcieAcHmVOnHYZB6zAg-1" value=":System" style="shape=umlLifeline;perimeter=lifelinePerimeter;whiteSpace=wrap;html=1;container=0;dropTarget=0;collapsible=0;recursiveResize=0;outlineConnect=0;portConstraint=eastwest;newEdgeStyle={&quot;edgeStyle&quot;:&quot;elbowEdgeStyle&quot;,&quot;elbow&quot;:&quot;vertical&quot;,&quot;curved&quot;:0,&quot;rounded&quot;:0};" vertex="1" parent="1">
          <mxGeometry x="629" y="120" width="100" height="370" as="geometry" />
        </mxCell>
        <mxCell id="ELcieAcHmVOnHYZB6zAg-3" value="UC5: Manage User Account&lt;br&gt;Sequence Diagram" style="text;html=1;strokeColor=none;fillColor=none;align=center;verticalAlign=middle;whiteSpace=wrap;rounded=0;fontStyle=1" vertex="1" parent="1">
          <mxGeometry x="409" y="40" width="230" height="30" as="geometry" />
        </mxCell>
        <mxCell id="ELcieAcHmVOnHYZB6zAg-4" style="edgeStyle=orthogonalEdgeStyle;rounded=0;orthogonalLoop=1;jettySize=auto;html=1;exitX=0.5;exitY=0.5;exitDx=0;exitDy=0;exitPerimeter=0;endArrow=none;endFill=0;dashed=1;" edge="1" parent="1" source="ELcieAcHmVOnHYZB6zAg-5">
          <mxGeometry relative="1" as="geometry">
            <mxPoint x="345" y="490" as="targetPoint" />
          </mxGeometry>
        </mxCell>
        <mxCell id="ELcieAcHmVOnHYZB6zAg-5" value="User" style="shape=umlActor;verticalLabelPosition=bottom;verticalAlign=top;html=1;outlineConnect=0;" vertex="1" parent="1">
          <mxGeometry x="330" y="90" width="30" height="60" as="geometry" />
        </mxCell>
        <mxCell id="ELcieAcHmVOnHYZB6zAg-6" value="selectCreateAccount()" style="html=1;verticalAlign=bottom;endArrow=block;edgeStyle=elbowEdgeStyle;elbow=vertical;curved=0;rounded=0;" edge="1" parent="1" target="ELcieAcHmVOnHYZB6zAg-1">
          <mxGeometry x="-0.0013" relative="1" as="geometry">
            <mxPoint x="342" y="224" as="sourcePoint" />
            <Array as="points">
              <mxPoint x="507" y="224" />
            </Array>
            <mxPoint x="562" y="224" as="targetPoint" />
            <mxPoint as="offset" />
          </mxGeometry>
        </mxCell>
        <mxCell id="ELcieAcHmVOnHYZB6zAg-7" value="enterAccountInfo(name, phone, email, username, password)" style="html=1;verticalAlign=bottom;endArrow=block;edgeStyle=elbowEdgeStyle;elbow=vertical;curved=0;rounded=0;" edge="1" parent="1" target="ELcieAcHmVOnHYZB6zAg-1">
          <mxGeometry relative="1" as="geometry">
            <mxPoint x="343" y="258" as="sourcePoint" />
            <Array as="points">
              <mxPoint x="508" y="258" />
            </Array>
            <mxPoint x="568.5" y="258" as="targetPoint" />
            <mxPoint as="offset" />
          </mxGeometry>
        </mxCell>
        <mxCell id="ELcieAcHmVOnHYZB6zAg-8" value="name, phone, email, username, password" style="html=1;verticalAlign=bottom;endArrow=open;dashed=1;endSize=8;edgeStyle=elbowEdgeStyle;elbow=vertical;curved=0;rounded=0;" edge="1" parent="1" source="ELcieAcHmVOnHYZB6zAg-1">
          <mxGeometry relative="1" as="geometry">
            <mxPoint x="343" y="295" as="targetPoint" />
            <Array as="points">
              <mxPoint x="428" y="295" />
            </Array>
            <mxPoint x="568.5" y="295" as="sourcePoint" />
          </mxGeometry>
        </mxCell>
        <mxCell id="ELcieAcHmVOnHYZB6zAg-10" value="confirmAccountInfo(name, phone, email, username, password)" style="html=1;verticalAlign=bottom;endArrow=block;edgeStyle=elbowEdgeStyle;elbow=vertical;curved=0;rounded=0;" edge="1" parent="1">
          <mxGeometry x="-0.0013" relative="1" as="geometry">
            <mxPoint x="343" y="330" as="sourcePoint" />
            <Array as="points">
              <mxPoint x="508" y="330" />
            </Array>
            <mxPoint x="680" y="330" as="targetPoint" />
            <mxPoint as="offset" />
          </mxGeometry>
        </mxCell>
        <mxCell id="ELcieAcHmVOnHYZB6zAg-11" value="submitAccountInfo(name, phone, email, username, password)" style="html=1;verticalAlign=bottom;endArrow=block;edgeStyle=elbowEdgeStyle;elbow=vertical;curved=0;rounded=0;" edge="1" parent="1">
          <mxGeometry x="-0.0013" relative="1" as="geometry">
            <mxPoint x="349" y="367" as="sourcePoint" />
            <Array as="points">
              <mxPoint x="514" y="367" />
            </Array>
            <mxPoint x="686" y="367" as="targetPoint" />
            <mxPoint as="offset" />
          </mxGeometry>
        </mxCell>
        <mxCell id="ELcieAcHmVOnHYZB6zAg-12" value="accountVerification" style="html=1;verticalAlign=bottom;endArrow=open;dashed=1;endSize=8;edgeStyle=elbowEdgeStyle;elbow=vertical;curved=0;rounded=0;" edge="1" parent="1">
          <mxGeometry relative="1" as="geometry">
            <mxPoint x="343" y="400" as="targetPoint" />
            <Array as="points">
              <mxPoint x="428" y="400" />
            </Array>
            <mxPoint x="679" y="400" as="sourcePoint" />
          </mxGeometry>
        </mxCell>
        <mxCell id="ELcieAcHmVOnHYZB6zAg-14" value="verifyAccount(username, password, accountVerification)" style="html=1;verticalAlign=bottom;endArrow=block;edgeStyle=elbowEdgeStyle;elbow=vertical;curved=0;rounded=0;" edge="1" parent="1">
          <mxGeometry x="-0.0013" relative="1" as="geometry">
            <mxPoint x="345" y="434" as="sourcePoint" />
            <Array as="points">
              <mxPoint x="510" y="434" />
            </Array>
            <mxPoint x="682" y="434" as="targetPoint" />
            <mxPoint as="offset" />
          </mxGeometry>
        </mxCell>
      </root>
    </mxGraphModel>
  </diagram>
  <diagram id="oGVVL0DK5psTNWt06rkA" name="UC6">
    <mxGraphModel grid="1" page="1" gridSize="10" guides="1" tooltips="1" connect="1" arrows="1" fold="1" pageScale="1" pageWidth="1100" pageHeight="850" math="0" shadow="0">
      <root>
        <mxCell id="0" />
        <mxCell id="1" parent="0" />
        <mxCell id="N6DR42Tn4r_PemkbRtlR-1" value=":System" style="shape=umlLifeline;perimeter=lifelinePerimeter;whiteSpace=wrap;html=1;container=0;dropTarget=0;collapsible=0;recursiveResize=0;outlineConnect=0;portConstraint=eastwest;newEdgeStyle={&quot;edgeStyle&quot;:&quot;elbowEdgeStyle&quot;,&quot;elbow&quot;:&quot;vertical&quot;,&quot;curved&quot;:0,&quot;rounded&quot;:0};" vertex="1" parent="1">
          <mxGeometry x="400" y="110" width="100" height="370" as="geometry" />
        </mxCell>
        <mxCell id="N6DR42Tn4r_PemkbRtlR-2" value="UC6: Ask Help&lt;br&gt;Sequence Diagram" style="text;html=1;strokeColor=none;fillColor=none;align=center;verticalAlign=middle;whiteSpace=wrap;rounded=0;fontStyle=1" vertex="1" parent="1">
          <mxGeometry x="180" y="30" width="230" height="30" as="geometry" />
        </mxCell>
        <mxCell id="N6DR42Tn4r_PemkbRtlR-3" style="edgeStyle=orthogonalEdgeStyle;rounded=0;orthogonalLoop=1;jettySize=auto;html=1;exitX=0.5;exitY=0.5;exitDx=0;exitDy=0;exitPerimeter=0;endArrow=none;endFill=0;dashed=1;" edge="1" parent="1" source="N6DR42Tn4r_PemkbRtlR-4">
          <mxGeometry relative="1" as="geometry">
            <mxPoint x="116" y="480" as="targetPoint" />
          </mxGeometry>
        </mxCell>
        <mxCell id="N6DR42Tn4r_PemkbRtlR-4" value="User" style="shape=umlActor;verticalLabelPosition=bottom;verticalAlign=top;html=1;outlineConnect=0;" vertex="1" parent="1">
          <mxGeometry x="101" y="80" width="30" height="60" as="geometry" />
        </mxCell>
        <mxCell id="N6DR42Tn4r_PemkbRtlR-5" value="selectChat()" style="html=1;verticalAlign=bottom;endArrow=block;edgeStyle=elbowEdgeStyle;elbow=vertical;curved=0;rounded=0;" edge="1" parent="1" target="N6DR42Tn4r_PemkbRtlR-1">
          <mxGeometry x="-0.0013" relative="1" as="geometry">
            <mxPoint x="113" y="214" as="sourcePoint" />
            <Array as="points">
              <mxPoint x="278" y="214" />
            </Array>
            <mxPoint x="333" y="214" as="targetPoint" />
            <mxPoint as="offset" />
          </mxGeometry>
        </mxCell>
        <mxCell id="N6DR42Tn4r_PemkbRtlR-6" value="startChatSession(question, keywords)" style="html=1;verticalAlign=bottom;endArrow=block;edgeStyle=elbowEdgeStyle;elbow=vertical;curved=0;rounded=0;" edge="1" parent="1" target="N6DR42Tn4r_PemkbRtlR-1">
          <mxGeometry relative="1" as="geometry">
            <mxPoint x="114" y="248" as="sourcePoint" />
            <Array as="points">
              <mxPoint x="279" y="248" />
            </Array>
            <mxPoint x="339.5" y="248" as="targetPoint" />
            <mxPoint as="offset" />
          </mxGeometry>
        </mxCell>
        <mxCell id="N6DR42Tn4r_PemkbRtlR-7" value="chatQuestionResponses" style="html=1;verticalAlign=bottom;endArrow=open;dashed=1;endSize=8;edgeStyle=elbowEdgeStyle;elbow=vertical;curved=0;rounded=0;" edge="1" parent="1" source="N6DR42Tn4r_PemkbRtlR-1">
          <mxGeometry relative="1" as="geometry">
            <mxPoint x="114" y="285" as="targetPoint" />
            <Array as="points">
              <mxPoint x="199" y="285" />
            </Array>
            <mxPoint x="339.5" y="285" as="sourcePoint" />
          </mxGeometry>
        </mxCell>
        <mxCell id="N6DR42Tn4r_PemkbRtlR-8" value="endChatSession(email)" style="html=1;verticalAlign=bottom;endArrow=block;edgeStyle=elbowEdgeStyle;elbow=vertical;curved=0;rounded=0;" edge="1" parent="1">
          <mxGeometry x="-0.0013" relative="1" as="geometry">
            <mxPoint x="114" y="320" as="sourcePoint" />
            <Array as="points">
              <mxPoint x="279" y="320" />
            </Array>
            <mxPoint x="451" y="320" as="targetPoint" />
            <mxPoint as="offset" />
          </mxGeometry>
        </mxCell>
        <mxCell id="-YRhCmRxPDpe9eI_AhBR-2" value="endChatConfirmationMessage, chatTranscript" style="html=1;verticalAlign=bottom;endArrow=open;dashed=1;endSize=8;edgeStyle=elbowEdgeStyle;elbow=vertical;curved=0;rounded=0;" edge="1" parent="1">
          <mxGeometry relative="1" as="geometry">
            <mxPoint x="116" y="354" as="targetPoint" />
            <Array as="points">
              <mxPoint x="201" y="354" />
            </Array>
            <mxPoint x="452" y="354" as="sourcePoint" />
          </mxGeometry>
        </mxCell>
        <mxCell id="XjIHXtYM7wWY-ccjORET-1" value="loop" style="shape=umlFrame;whiteSpace=wrap;html=1;pointerEvents=0;" vertex="1" parent="1">
          <mxGeometry x="40" y="180" width="460" height="120" as="geometry" />
        </mxCell>
        <mxCell id="UFB3H0ouONDPn8uTgKro-1" value="[questions, keywords]" style="text;html=1;align=center;verticalAlign=middle;resizable=0;points=[];autosize=1;strokeColor=none;fillColor=none;" vertex="1" parent="1">
          <mxGeometry x="92" y="180" width="140" height="30" as="geometry" />
        </mxCell>
      </root>
    </mxGraphModel>
  </diagram>
  <diagram id="9gBLKTYXunG6H1uA21Sh" name="UC7">
    <mxGraphModel grid="1" page="1" gridSize="10" guides="1" tooltips="1" connect="1" arrows="1" fold="1" pageScale="1" pageWidth="1100" pageHeight="850" math="0" shadow="0">
      <root>
        <mxCell id="0" />
        <mxCell id="1" parent="0" />
        <mxCell id="kxStrU6a_xl0YsKGEl4B-1" value=":System" style="shape=umlLifeline;perimeter=lifelinePerimeter;whiteSpace=wrap;html=1;container=0;dropTarget=0;collapsible=0;recursiveResize=0;outlineConnect=0;portConstraint=eastwest;newEdgeStyle={&quot;edgeStyle&quot;:&quot;elbowEdgeStyle&quot;,&quot;elbow&quot;:&quot;vertical&quot;,&quot;curved&quot;:0,&quot;rounded&quot;:0};" vertex="1" parent="1">
          <mxGeometry x="599" y="140" width="100" height="370" as="geometry" />
        </mxCell>
        <mxCell id="kxStrU6a_xl0YsKGEl4B-2" value="UC7: Write Review&lt;br&gt;Sequence Diagram" style="text;html=1;strokeColor=none;fillColor=none;align=center;verticalAlign=middle;whiteSpace=wrap;rounded=0;fontStyle=1" vertex="1" parent="1">
          <mxGeometry x="379" y="60" width="230" height="30" as="geometry" />
        </mxCell>
        <mxCell id="kxStrU6a_xl0YsKGEl4B-3" style="edgeStyle=orthogonalEdgeStyle;rounded=0;orthogonalLoop=1;jettySize=auto;html=1;exitX=0.5;exitY=0.5;exitDx=0;exitDy=0;exitPerimeter=0;endArrow=none;endFill=0;dashed=1;" edge="1" parent="1" source="kxStrU6a_xl0YsKGEl4B-4">
          <mxGeometry relative="1" as="geometry">
            <mxPoint x="315" y="510" as="targetPoint" />
          </mxGeometry>
        </mxCell>
        <mxCell id="kxStrU6a_xl0YsKGEl4B-4" value="Service Requester" style="shape=umlActor;verticalLabelPosition=bottom;verticalAlign=top;html=1;outlineConnect=0;" vertex="1" parent="1">
          <mxGeometry x="300" y="110" width="30" height="60" as="geometry" />
        </mxCell>
        <mxCell id="kxStrU6a_xl0YsKGEl4B-5" value="selectServiceAppointment()" style="html=1;verticalAlign=bottom;endArrow=block;edgeStyle=elbowEdgeStyle;elbow=vertical;curved=0;rounded=0;" edge="1" parent="1" target="kxStrU6a_xl0YsKGEl4B-1">
          <mxGeometry x="-0.0023" relative="1" as="geometry">
            <mxPoint x="312" y="244" as="sourcePoint" />
            <Array as="points">
              <mxPoint x="477" y="244" />
            </Array>
            <mxPoint x="532" y="244" as="targetPoint" />
            <mxPoint as="offset" />
          </mxGeometry>
        </mxCell>
        <mxCell id="kxStrU6a_xl0YsKGEl4B-6" value="writeReview(rating, comment)" style="html=1;verticalAlign=bottom;endArrow=block;edgeStyle=elbowEdgeStyle;elbow=vertical;curved=0;rounded=0;" edge="1" parent="1">
          <mxGeometry x="0.0015" relative="1" as="geometry">
            <mxPoint x="313" y="319" as="sourcePoint" />
            <Array as="points">
              <mxPoint x="478" y="319" />
            </Array>
            <mxPoint x="648.5" y="319" as="targetPoint" />
            <mxPoint as="offset" />
          </mxGeometry>
        </mxCell>
        <mxCell id="kxStrU6a_xl0YsKGEl4B-7" value="rating, comment" style="html=1;verticalAlign=bottom;endArrow=open;dashed=1;endSize=8;edgeStyle=elbowEdgeStyle;elbow=vertical;curved=0;rounded=0;" edge="1" parent="1">
          <mxGeometry x="0.0015" relative="1" as="geometry">
            <mxPoint x="313" y="350" as="targetPoint" />
            <Array as="points">
              <mxPoint x="398" y="350" />
            </Array>
            <mxPoint x="648.5" y="350" as="sourcePoint" />
            <mxPoint as="offset" />
          </mxGeometry>
        </mxCell>
        <mxCell id="kxStrU6a_xl0YsKGEl4B-8" value="confirmSubmission(writeReview)" style="html=1;verticalAlign=bottom;endArrow=block;edgeStyle=elbowEdgeStyle;elbow=vertical;curved=0;rounded=0;" edge="1" parent="1">
          <mxGeometry x="-0.0013" relative="1" as="geometry">
            <mxPoint x="313" y="386" as="sourcePoint" />
            <Array as="points">
              <mxPoint x="478" y="386" />
            </Array>
            <mxPoint x="650" y="386" as="targetPoint" />
            <mxPoint as="offset" />
          </mxGeometry>
        </mxCell>
        <mxCell id="kxStrU6a_xl0YsKGEl4B-9" value="submissionConfirmation" style="html=1;verticalAlign=bottom;endArrow=open;dashed=1;endSize=8;edgeStyle=elbowEdgeStyle;elbow=vertical;curved=0;rounded=0;" edge="1" parent="1">
          <mxGeometry relative="1" as="geometry">
            <mxPoint x="315" y="426" as="targetPoint" />
            <Array as="points">
              <mxPoint x="400" y="426" />
            </Array>
            <mxPoint x="651" y="426" as="sourcePoint" />
          </mxGeometry>
        </mxCell>
        <mxCell id="kxStrU6a_xl0YsKGEl4B-10" value="serviceAppointment" style="html=1;verticalAlign=bottom;endArrow=open;dashed=1;endSize=8;edgeStyle=elbowEdgeStyle;elbow=vertical;curved=0;rounded=0;" edge="1" parent="1">
          <mxGeometry relative="1" as="geometry">
            <mxPoint x="316" y="282" as="targetPoint" />
            <Array as="points">
              <mxPoint x="401" y="282" />
            </Array>
            <mxPoint x="651.5" y="282" as="sourcePoint" />
          </mxGeometry>
        </mxCell>
      </root>
    </mxGraphModel>
  </diagram>
  <diagram id="Wu9dYIro4zJ0XjJgdVFs" name="UC8">
    <mxGraphModel dx="880" dy="470" grid="1" gridSize="10" guides="1" tooltips="1" connect="1" arrows="1" fold="1" page="1" pageScale="1" pageWidth="827" pageHeight="1169" math="0" shadow="0">
      <root>
        <mxCell id="0" />
        <mxCell id="1" parent="0" />
        <mxCell id="Lequx70QiKgURLjUqejT-1" value=":System" style="shape=umlLifeline;perimeter=lifelinePerimeter;whiteSpace=wrap;html=1;container=0;dropTarget=0;collapsible=0;recursiveResize=0;outlineConnect=0;portConstraint=eastwest;newEdgeStyle={&quot;edgeStyle&quot;:&quot;elbowEdgeStyle&quot;,&quot;elbow&quot;:&quot;vertical&quot;,&quot;curved&quot;:0,&quot;rounded&quot;:0};" vertex="1" parent="1">
          <mxGeometry x="356" y="80" width="100" height="320" as="geometry" />
        </mxCell>
        <mxCell id="Lequx70QiKgURLjUqejT-2" value="askDiscountProposal()" style="html=1;verticalAlign=bottom;endArrow=open;endSize=8;edgeStyle=elbowEdgeStyle;elbow=vertical;curved=0;rounded=0;" edge="1" parent="1">
          <mxGeometry relative="1" as="geometry">
            <mxPoint x="180" y="210" as="targetPoint" />
            <Array as="points">
              <mxPoint x="326" y="210" />
            </Array>
            <mxPoint x="401" y="210" as="sourcePoint" />
          </mxGeometry>
        </mxCell>
        <mxCell id="Lequx70QiKgURLjUqejT-3" value="UC8: Make Proposal&lt;br&gt;Sequence Diagram" style="text;html=1;strokeColor=none;fillColor=none;align=center;verticalAlign=middle;whiteSpace=wrap;rounded=0;fontStyle=1" vertex="1" parent="1">
          <mxGeometry x="291" y="10" width="230" height="30" as="geometry" />
        </mxCell>
        <mxCell id="Lequx70QiKgURLjUqejT-4" value="Service Requester" style="shape=umlActor;verticalLabelPosition=bottom;verticalAlign=top;html=1;outlineConnect=0;" vertex="1" parent="1">
          <mxGeometry x="167" y="60" width="30" height="60" as="geometry" />
        </mxCell>
        <mxCell id="Lequx70QiKgURLjUqejT-5" value="" style="endArrow=none;dashed=1;html=1;rounded=0;" edge="1" parent="1">
          <mxGeometry width="50" height="50" relative="1" as="geometry">
            <mxPoint x="183" y="400" as="sourcePoint" />
            <mxPoint x="182.51612903225805" y="120" as="targetPoint" />
          </mxGeometry>
        </mxCell>
        <mxCell id="Lequx70QiKgURLjUqejT-6" value="selectAvailableTime()" style="html=1;verticalAlign=bottom;endArrow=block;edgeStyle=elbowEdgeStyle;elbow=vertical;curved=0;rounded=0;" edge="1" parent="1">
          <mxGeometry relative="1" as="geometry">
            <mxPoint x="180" y="180" as="sourcePoint" />
            <Array as="points">
              <mxPoint x="345" y="180" />
            </Array>
            <mxPoint x="400" y="180" as="targetPoint" />
            <mxPoint as="offset" />
          </mxGeometry>
        </mxCell>
        <mxCell id="Lequx70QiKgURLjUqejT-7" value="enterProposedPrice()" style="html=1;verticalAlign=bottom;endArrow=block;edgeStyle=elbowEdgeStyle;elbow=vertical;curved=0;rounded=0;" edge="1" parent="1">
          <mxGeometry relative="1" as="geometry">
            <mxPoint x="180" y="240" as="sourcePoint" />
            <Array as="points">
              <mxPoint x="345" y="240" />
            </Array>
            <mxPoint x="405.5" y="240" as="targetPoint" />
            <mxPoint as="offset" />
          </mxGeometry>
        </mxCell>
        <mxCell id="Lequx70QiKgURLjUqejT-8" value="confirmationofPendingAppointment" style="html=1;verticalAlign=bottom;endArrow=open;dashed=1;endSize=8;edgeStyle=elbowEdgeStyle;elbow=horizontal;curved=0;rounded=0;" edge="1" parent="1">
          <mxGeometry relative="1" as="geometry">
            <mxPoint x="182.25" y="330" as="targetPoint" />
            <Array as="points">
              <mxPoint x="267.25" y="330" />
            </Array>
            <mxPoint x="407.75" y="330" as="sourcePoint" />
          </mxGeometry>
        </mxCell>
        <mxCell id="Lequx70QiKgURLjUqejT-9" value="askforConfirmation()" style="html=1;verticalAlign=bottom;endArrow=block;edgeStyle=elbowEdgeStyle;elbow=vertical;curved=0;rounded=0;" edge="1" parent="1">
          <mxGeometry relative="1" as="geometry">
            <mxPoint x="405.5" y="267" as="sourcePoint" />
            <Array as="points">
              <mxPoint x="345" y="267" />
            </Array>
            <mxPoint x="180" y="267" as="targetPoint" />
            <mxPoint as="offset" />
          </mxGeometry>
        </mxCell>
        <mxCell id="Lequx70QiKgURLjUqejT-10" value="confirm()" style="html=1;verticalAlign=bottom;endArrow=block;edgeStyle=elbowEdgeStyle;elbow=vertical;curved=0;rounded=0;" edge="1" parent="1">
          <mxGeometry relative="1" as="geometry">
            <mxPoint x="180" y="297" as="sourcePoint" />
            <Array as="points">
              <mxPoint x="345" y="297" />
            </Array>
            <mxPoint x="406" y="297" as="targetPoint" />
            <mxPoint as="offset" />
          </mxGeometry>
        </mxCell>
        <mxCell id="zIOFQ71s_VOdfNNVnsFc-1" value="Service Provider" style="shape=umlActor;verticalLabelPosition=bottom;verticalAlign=top;html=1;outlineConnect=0;" vertex="1" parent="1">
          <mxGeometry x="590" y="60" width="30" height="60" as="geometry" />
        </mxCell>
        <mxCell id="zIOFQ71s_VOdfNNVnsFc-2" value="" style="endArrow=none;dashed=1;html=1;rounded=0;" edge="1" parent="1">
          <mxGeometry width="50" height="50" relative="1" as="geometry">
            <mxPoint x="606" y="400" as="sourcePoint" />
            <mxPoint x="605.516129032258" y="120" as="targetPoint" />
          </mxGeometry>
        </mxCell>
        <mxCell id="KffK-8UeyCa9s52FNn-N-1" value="confirmationofPendingAppointment" style="html=1;verticalAlign=bottom;endArrow=open;dashed=1;endSize=8;edgeStyle=elbowEdgeStyle;elbow=horizontal;curved=0;rounded=0;" edge="1" parent="1" source="Lequx70QiKgURLjUqejT-1">
          <mxGeometry relative="1" as="geometry">
            <mxPoint x="610" y="330" as="targetPoint" />
            <Array as="points">
              <mxPoint x="440" y="330" />
            </Array>
            <mxPoint x="440" y="340" as="sourcePoint" />
          </mxGeometry>
        </mxCell>
      </root>
    </mxGraphModel>
  </diagram>
  <diagram id="So_IDXs-jE3AjoVQFFFM" name="UC9">
    <mxGraphModel dx="880" dy="470" grid="1" gridSize="10" guides="1" tooltips="1" connect="1" arrows="1" fold="1" page="1" pageScale="1" pageWidth="827" pageHeight="1169" math="0" shadow="0">
      <root>
        <mxCell id="0" />
        <mxCell id="1" parent="0" />
        <mxCell id="68wJDib4ne7u7eIJ_8wy-1" value=":System" style="shape=umlLifeline;perimeter=lifelinePerimeter;whiteSpace=wrap;html=1;container=0;dropTarget=0;collapsible=0;recursiveResize=0;outlineConnect=0;portConstraint=eastwest;newEdgeStyle={&quot;edgeStyle&quot;:&quot;elbowEdgeStyle&quot;,&quot;elbow&quot;:&quot;vertical&quot;,&quot;curved&quot;:0,&quot;rounded&quot;:0};" vertex="1" parent="1">
          <mxGeometry x="356" y="80" width="100" height="280" as="geometry" />
        </mxCell>
        <mxCell id="68wJDib4ne7u7eIJ_8wy-3" value="UC9: Manage Service&lt;br&gt;Sequence Diagram" style="text;html=1;strokeColor=none;fillColor=none;align=center;verticalAlign=middle;whiteSpace=wrap;rounded=0;fontStyle=1" vertex="1" parent="1">
          <mxGeometry x="167" y="10" width="230" height="30" as="geometry" />
        </mxCell>
        <mxCell id="68wJDib4ne7u7eIJ_8wy-4" value="Service Provider" style="shape=umlActor;verticalLabelPosition=bottom;verticalAlign=top;html=1;outlineConnect=0;" vertex="1" parent="1">
          <mxGeometry x="167" y="60" width="30" height="60" as="geometry" />
        </mxCell>
        <mxCell id="68wJDib4ne7u7eIJ_8wy-5" value="" style="endArrow=none;dashed=1;html=1;rounded=0;" edge="1" parent="1">
          <mxGeometry width="50" height="50" relative="1" as="geometry">
            <mxPoint x="183" y="360" as="sourcePoint" />
            <mxPoint x="182.51612903225805" y="120" as="targetPoint" />
          </mxGeometry>
        </mxCell>
        <mxCell id="68wJDib4ne7u7eIJ_8wy-7" value="fillServiceDetails()" style="html=1;verticalAlign=bottom;endArrow=block;edgeStyle=elbowEdgeStyle;elbow=vertical;curved=0;rounded=0;" edge="1" parent="1">
          <mxGeometry relative="1" as="geometry">
            <mxPoint x="180" y="190" as="sourcePoint" />
            <Array as="points">
              <mxPoint x="345" y="190" />
            </Array>
            <mxPoint x="405.5" y="190" as="targetPoint" />
            <mxPoint as="offset" />
          </mxGeometry>
        </mxCell>
        <mxCell id="68wJDib4ne7u7eIJ_8wy-8" value="ServiceUUID" style="html=1;verticalAlign=bottom;endArrow=open;dashed=1;endSize=8;edgeStyle=elbowEdgeStyle;elbow=horizontal;curved=0;rounded=0;" edge="1" parent="1">
          <mxGeometry relative="1" as="geometry">
            <mxPoint x="182.25" y="253" as="targetPoint" />
            <Array as="points">
              <mxPoint x="267.25" y="253" />
            </Array>
            <mxPoint x="407.75" y="253" as="sourcePoint" />
          </mxGeometry>
        </mxCell>
        <mxCell id="68wJDib4ne7u7eIJ_8wy-10" value="createService()" style="html=1;verticalAlign=bottom;endArrow=block;edgeStyle=elbowEdgeStyle;elbow=vertical;curved=0;rounded=0;" edge="1" parent="1">
          <mxGeometry relative="1" as="geometry">
            <mxPoint x="180" y="220" as="sourcePoint" />
            <Array as="points">
              <mxPoint x="345" y="220" />
            </Array>
            <mxPoint x="406" y="220" as="targetPoint" />
            <mxPoint as="offset" />
          </mxGeometry>
        </mxCell>
      </root>
    </mxGraphModel>
  </diagram>
  <diagram id="Hcl7ppEntkgCRqQJ7OTL" name="UC10">
    <mxGraphModel dx="880" dy="470" grid="1" gridSize="10" guides="1" tooltips="1" connect="1" arrows="1" fold="1" page="1" pageScale="1" pageWidth="827" pageHeight="1169" math="0" shadow="0">
      <root>
        <mxCell id="0" />
        <mxCell id="1" parent="0" />
        <mxCell id="7MJAW_G9ryWBNIFrOTyn-1" value=":System" style="shape=umlLifeline;perimeter=lifelinePerimeter;whiteSpace=wrap;html=1;container=0;dropTarget=0;collapsible=0;recursiveResize=0;outlineConnect=0;portConstraint=eastwest;newEdgeStyle={&quot;edgeStyle&quot;:&quot;elbowEdgeStyle&quot;,&quot;elbow&quot;:&quot;vertical&quot;,&quot;curved&quot;:0,&quot;rounded&quot;:0};" vertex="1" parent="1">
          <mxGeometry x="356" y="80" width="100" height="320" as="geometry" />
        </mxCell>
        <mxCell id="7MJAW_G9ryWBNIFrOTyn-2" value="confirmPaymentDetails()" style="html=1;verticalAlign=bottom;endArrow=open;endSize=8;edgeStyle=elbowEdgeStyle;elbow=vertical;curved=0;rounded=0;" edge="1" parent="1">
          <mxGeometry relative="1" as="geometry">
            <mxPoint x="180" y="210" as="targetPoint" />
            <Array as="points">
              <mxPoint x="326" y="210" />
            </Array>
            <mxPoint x="401" y="210" as="sourcePoint" />
          </mxGeometry>
        </mxCell>
        <mxCell id="7MJAW_G9ryWBNIFrOTyn-3" value="UC10: Receive Payment&lt;br&gt;Sequence Diagram" style="text;html=1;strokeColor=none;fillColor=none;align=center;verticalAlign=middle;whiteSpace=wrap;rounded=0;fontStyle=1" vertex="1" parent="1">
          <mxGeometry x="291" y="10" width="230" height="30" as="geometry" />
        </mxCell>
        <mxCell id="7MJAW_G9ryWBNIFrOTyn-4" value="Service Requester" style="shape=umlActor;verticalLabelPosition=bottom;verticalAlign=top;html=1;outlineConnect=0;" vertex="1" parent="1">
          <mxGeometry x="167" y="60" width="30" height="60" as="geometry" />
        </mxCell>
        <mxCell id="7MJAW_G9ryWBNIFrOTyn-5" value="" style="endArrow=none;dashed=1;html=1;rounded=0;" edge="1" parent="1">
          <mxGeometry width="50" height="50" relative="1" as="geometry">
            <mxPoint x="183" y="400" as="sourcePoint" />
            <mxPoint x="182.51612903225805" y="120" as="targetPoint" />
          </mxGeometry>
        </mxCell>
        <mxCell id="7MJAW_G9ryWBNIFrOTyn-6" value="enterPaymentDetails()" style="html=1;verticalAlign=bottom;endArrow=block;edgeStyle=elbowEdgeStyle;elbow=vertical;curved=0;rounded=0;" edge="1" parent="1">
          <mxGeometry relative="1" as="geometry">
            <mxPoint x="180" y="180" as="sourcePoint" />
            <Array as="points">
              <mxPoint x="345" y="180" />
            </Array>
            <mxPoint x="400" y="180" as="targetPoint" />
            <mxPoint as="offset" />
          </mxGeometry>
        </mxCell>
        <mxCell id="7MJAW_G9ryWBNIFrOTyn-7" value="transferAmount()" style="html=1;verticalAlign=bottom;endArrow=block;edgeStyle=elbowEdgeStyle;elbow=vertical;curved=0;rounded=0;" edge="1" parent="1">
          <mxGeometry relative="1" as="geometry">
            <mxPoint x="410" y="298" as="sourcePoint" />
            <Array as="points">
              <mxPoint x="575" y="298" />
            </Array>
            <mxPoint x="600" y="298" as="targetPoint" />
            <mxPoint as="offset" />
          </mxGeometry>
        </mxCell>
        <mxCell id="7MJAW_G9ryWBNIFrOTyn-8" value="confirmationofSuccessfulPayment" style="html=1;verticalAlign=bottom;endArrow=open;dashed=1;endSize=8;edgeStyle=elbowEdgeStyle;elbow=horizontal;curved=0;rounded=0;" edge="1" parent="1">
          <mxGeometry relative="1" as="geometry">
            <mxPoint x="182.25" y="328" as="targetPoint" />
            <Array as="points">
              <mxPoint x="267.25" y="328" />
            </Array>
            <mxPoint x="407.75" y="328" as="sourcePoint" />
          </mxGeometry>
        </mxCell>
        <mxCell id="7MJAW_G9ryWBNIFrOTyn-11" value="Service Provider" style="shape=umlActor;verticalLabelPosition=bottom;verticalAlign=top;html=1;outlineConnect=0;" vertex="1" parent="1">
          <mxGeometry x="590" y="60" width="30" height="60" as="geometry" />
        </mxCell>
        <mxCell id="7MJAW_G9ryWBNIFrOTyn-12" value="" style="endArrow=none;dashed=1;html=1;rounded=0;" edge="1" parent="1">
          <mxGeometry width="50" height="50" relative="1" as="geometry">
            <mxPoint x="606" y="400" as="sourcePoint" />
            <mxPoint x="605.516129032258" y="120" as="targetPoint" />
          </mxGeometry>
        </mxCell>
        <mxCell id="YdMTRKyxxw8SKu0aX6Kq-1" value="provideFinancialInformation()" style="html=1;verticalAlign=bottom;endArrow=open;endSize=8;edgeStyle=elbowEdgeStyle;elbow=vertical;curved=0;rounded=0;" edge="1" parent="1">
          <mxGeometry relative="1" as="geometry">
            <mxPoint x="410" y="268" as="targetPoint" />
            <Array as="points">
              <mxPoint x="556" y="268" />
            </Array>
            <mxPoint x="600" y="268" as="sourcePoint" />
          </mxGeometry>
        </mxCell>
        <mxCell id="YdMTRKyxxw8SKu0aX6Kq-2" value="confirmationofSuccessfulPayment" style="html=1;verticalAlign=bottom;endArrow=open;dashed=1;endSize=8;edgeStyle=elbowEdgeStyle;elbow=horizontal;curved=0;rounded=0;" edge="1" parent="1">
          <mxGeometry relative="1" as="geometry">
            <mxPoint x="609" y="328" as="targetPoint" />
            <Array as="points" />
            <mxPoint x="409" y="328" as="sourcePoint" />
          </mxGeometry>
        </mxCell>
        <mxCell id="24XE-ah3GSq4l3fKtP5w-1" value="requestFinancialInformation()" style="html=1;verticalAlign=bottom;endArrow=block;edgeStyle=elbowEdgeStyle;elbow=vertical;curved=0;rounded=0;" edge="1" parent="1">
          <mxGeometry relative="1" as="geometry">
            <mxPoint x="408" y="239.5" as="sourcePoint" />
            <Array as="points">
              <mxPoint x="573" y="239.5" />
            </Array>
            <mxPoint x="608" y="240" as="targetPoint" />
            <mxPoint as="offset" />
          </mxGeometry>
        </mxCell>
        <mxCell id="24XE-ah3GSq4l3fKtP5w-2" value="updatePaymentHistory()" style="html=1;verticalAlign=bottom;endArrow=open;endSize=8;edgeStyle=elbowEdgeStyle;elbow=horizontal;curved=0;rounded=0;" edge="1" parent="1">
          <mxGeometry relative="1" as="geometry">
            <mxPoint x="181" y="360" as="targetPoint" />
            <Array as="points">
              <mxPoint x="266" y="360" />
            </Array>
            <mxPoint x="406.5" y="360" as="sourcePoint" />
          </mxGeometry>
        </mxCell>
        <mxCell id="24XE-ah3GSq4l3fKtP5w-3" value="updatePaymentHistory()" style="html=1;verticalAlign=bottom;endArrow=open;endSize=8;edgeStyle=elbowEdgeStyle;elbow=horizontal;curved=0;rounded=0;" edge="1" parent="1">
          <mxGeometry relative="1" as="geometry">
            <mxPoint x="608.75" y="360" as="targetPoint" />
            <Array as="points" />
            <mxPoint x="408.75" y="360" as="sourcePoint" />
          </mxGeometry>
        </mxCell>
      </root>
    </mxGraphModel>
  </diagram>
  <diagram id="6iVdMWJrndI8JibPEmqC" name="UC11">
    <mxGraphModel dx="880" dy="470" grid="1" gridSize="10" guides="1" tooltips="1" connect="1" arrows="1" fold="1" page="1" pageScale="1" pageWidth="827" pageHeight="1169" math="0" shadow="0">
      <root>
        <mxCell id="0" />
        <mxCell id="1" parent="0" />
        <mxCell id="2LBD5LZTaD-s-8Ko3Vfg-1" value=":System" style="shape=umlLifeline;perimeter=lifelinePerimeter;whiteSpace=wrap;html=1;container=0;dropTarget=0;collapsible=0;recursiveResize=0;outlineConnect=0;portConstraint=eastwest;newEdgeStyle={&quot;edgeStyle&quot;:&quot;elbowEdgeStyle&quot;,&quot;elbow&quot;:&quot;vertical&quot;,&quot;curved&quot;:0,&quot;rounded&quot;:0};" vertex="1" parent="1">
          <mxGeometry x="356" y="80" width="100" height="320" as="geometry" />
        </mxCell>
        <mxCell id="2LBD5LZTaD-s-8Ko3Vfg-2" value="incidentReports" style="html=1;verticalAlign=bottom;endArrow=open;endSize=8;edgeStyle=elbowEdgeStyle;elbow=vertical;curved=0;rounded=0;dashed=1;" edge="1" parent="1">
          <mxGeometry relative="1" as="geometry">
            <mxPoint x="180" y="210" as="targetPoint" />
            <Array as="points">
              <mxPoint x="326" y="210" />
            </Array>
            <mxPoint x="401" y="210" as="sourcePoint" />
          </mxGeometry>
        </mxCell>
        <mxCell id="2LBD5LZTaD-s-8Ko3Vfg-3" value="UC11: Troubleshoot System&lt;br&gt;Sequence Diagram" style="text;html=1;strokeColor=none;fillColor=none;align=center;verticalAlign=middle;whiteSpace=wrap;rounded=0;fontStyle=1" vertex="1" parent="1">
          <mxGeometry x="184" y="10" width="230" height="30" as="geometry" />
        </mxCell>
        <mxCell id="2LBD5LZTaD-s-8Ko3Vfg-4" value="System Admin" style="shape=umlActor;verticalLabelPosition=bottom;verticalAlign=top;html=1;outlineConnect=0;" vertex="1" parent="1">
          <mxGeometry x="167" y="60" width="30" height="60" as="geometry" />
        </mxCell>
        <mxCell id="2LBD5LZTaD-s-8Ko3Vfg-5" value="" style="endArrow=none;dashed=1;html=1;rounded=0;" edge="1" parent="1">
          <mxGeometry width="50" height="50" relative="1" as="geometry">
            <mxPoint x="183" y="400" as="sourcePoint" />
            <mxPoint x="182.51612903225805" y="120" as="targetPoint" />
          </mxGeometry>
        </mxCell>
        <mxCell id="2LBD5LZTaD-s-8Ko3Vfg-6" value="requestIncidentReports()" style="html=1;verticalAlign=bottom;endArrow=block;edgeStyle=elbowEdgeStyle;elbow=vertical;curved=0;rounded=0;" edge="1" parent="1">
          <mxGeometry relative="1" as="geometry">
            <mxPoint x="180" y="180" as="sourcePoint" />
            <Array as="points">
              <mxPoint x="345" y="180" />
            </Array>
            <mxPoint x="400" y="180" as="targetPoint" />
            <mxPoint as="offset" />
          </mxGeometry>
        </mxCell>
        <mxCell id="2LBD5LZTaD-s-8Ko3Vfg-14" value="implementCorrectiveMeausures()" style="html=1;verticalAlign=bottom;endArrow=open;endSize=8;edgeStyle=elbowEdgeStyle;elbow=horizontal;curved=0;rounded=0;" edge="1" parent="1">
          <mxGeometry x="0.0387" relative="1" as="geometry">
            <mxPoint x="405.5" y="303" as="targetPoint" />
            <Array as="points">
              <mxPoint x="262" y="303" />
            </Array>
            <mxPoint x="186" y="303" as="sourcePoint" />
            <mxPoint as="offset" />
          </mxGeometry>
        </mxCell>
        <mxCell id="nAbwdxWSAWYx1g5-nqRl-1" value="systemLogs" style="html=1;verticalAlign=bottom;endArrow=open;endSize=8;edgeStyle=elbowEdgeStyle;elbow=vertical;curved=0;rounded=0;dashed=1;" edge="1" parent="1">
          <mxGeometry relative="1" as="geometry">
            <mxPoint x="184" y="270" as="targetPoint" />
            <Array as="points">
              <mxPoint x="330" y="270" />
            </Array>
            <mxPoint x="405" y="270" as="sourcePoint" />
          </mxGeometry>
        </mxCell>
        <mxCell id="nAbwdxWSAWYx1g5-nqRl-2" value="requestSystemLogs()" style="html=1;verticalAlign=bottom;endArrow=block;edgeStyle=elbowEdgeStyle;elbow=vertical;curved=0;rounded=0;" edge="1" parent="1">
          <mxGeometry relative="1" as="geometry">
            <mxPoint x="184" y="240" as="sourcePoint" />
            <Array as="points">
              <mxPoint x="349" y="240" />
            </Array>
            <mxPoint x="404" y="240" as="targetPoint" />
            <mxPoint as="offset" />
          </mxGeometry>
        </mxCell>
        <mxCell id="nAbwdxWSAWYx1g5-nqRl-3" value="verifyResolvedIssues()" style="html=1;verticalAlign=bottom;endArrow=open;endSize=8;edgeStyle=elbowEdgeStyle;elbow=horizontal;curved=0;rounded=0;" edge="1" parent="1">
          <mxGeometry x="0.0387" relative="1" as="geometry">
            <mxPoint x="403.5" y="340" as="targetPoint" />
            <Array as="points">
              <mxPoint x="260" y="340" />
            </Array>
            <mxPoint x="184" y="340" as="sourcePoint" />
            <mxPoint as="offset" />
          </mxGeometry>
        </mxCell>
      </root>
    </mxGraphModel>
  </diagram>
  <diagram id="9JJnF7ISz5gEr4g_lUoM" name="UC12">
    <mxGraphModel dx="880" dy="470" grid="1" gridSize="10" guides="1" tooltips="1" connect="1" arrows="1" fold="1" page="1" pageScale="1" pageWidth="827" pageHeight="1169" math="0" shadow="0">
      <root>
        <mxCell id="0" />
        <mxCell id="1" parent="0" />
        <mxCell id="sXUh25nEaIiEsh7eTjRY-1" value=":System" style="shape=umlLifeline;perimeter=lifelinePerimeter;whiteSpace=wrap;html=1;container=0;dropTarget=0;collapsible=0;recursiveResize=0;outlineConnect=0;portConstraint=eastwest;newEdgeStyle={&quot;edgeStyle&quot;:&quot;elbowEdgeStyle&quot;,&quot;elbow&quot;:&quot;vertical&quot;,&quot;curved&quot;:0,&quot;rounded&quot;:0};" vertex="1" parent="1">
          <mxGeometry x="356" y="80" width="100" height="410" as="geometry" />
        </mxCell>
        <mxCell id="sXUh25nEaIiEsh7eTjRY-2" value="pendingScheduledAppointment" style="html=1;verticalAlign=bottom;endArrow=open;endSize=8;edgeStyle=elbowEdgeStyle;elbow=vertical;curved=0;rounded=0;dashed=1;" edge="1" parent="1">
          <mxGeometry relative="1" as="geometry">
            <mxPoint x="180" y="210" as="targetPoint" />
            <Array as="points">
              <mxPoint x="326" y="210" />
            </Array>
            <mxPoint x="401" y="210" as="sourcePoint" />
          </mxGeometry>
        </mxCell>
        <mxCell id="sXUh25nEaIiEsh7eTjRY-3" value="UC12: Approve Appointment&lt;br&gt;Sequence Diagram" style="text;html=1;strokeColor=none;fillColor=none;align=center;verticalAlign=middle;whiteSpace=wrap;rounded=0;fontStyle=1" vertex="1" parent="1">
          <mxGeometry x="291" y="10" width="230" height="30" as="geometry" />
        </mxCell>
        <mxCell id="sXUh25nEaIiEsh7eTjRY-4" value="Service Provider" style="shape=umlActor;verticalLabelPosition=bottom;verticalAlign=top;html=1;outlineConnect=0;" vertex="1" parent="1">
          <mxGeometry x="167" y="60" width="30" height="60" as="geometry" />
        </mxCell>
        <mxCell id="sXUh25nEaIiEsh7eTjRY-5" value="" style="endArrow=none;dashed=1;html=1;rounded=0;" edge="1" parent="1">
          <mxGeometry width="50" height="50" relative="1" as="geometry">
            <mxPoint x="183" y="490" as="sourcePoint" />
            <mxPoint x="182.51612903225805" y="120" as="targetPoint" />
          </mxGeometry>
        </mxCell>
        <mxCell id="sXUh25nEaIiEsh7eTjRY-6" value="Login()" style="html=1;verticalAlign=bottom;endArrow=block;edgeStyle=elbowEdgeStyle;elbow=vertical;curved=0;rounded=0;" edge="1" parent="1">
          <mxGeometry relative="1" as="geometry">
            <mxPoint x="180" y="180" as="sourcePoint" />
            <Array as="points">
              <mxPoint x="345" y="180" />
            </Array>
            <mxPoint x="400" y="180" as="targetPoint" />
            <mxPoint as="offset" />
          </mxGeometry>
        </mxCell>
        <mxCell id="sXUh25nEaIiEsh7eTjRY-9" value="Service Provider" style="shape=umlActor;verticalLabelPosition=bottom;verticalAlign=top;html=1;outlineConnect=0;" vertex="1" parent="1">
          <mxGeometry x="590" y="60" width="30" height="60" as="geometry" />
        </mxCell>
        <mxCell id="sXUh25nEaIiEsh7eTjRY-10" value="" style="endArrow=none;dashed=1;html=1;rounded=0;" edge="1" parent="1">
          <mxGeometry width="50" height="50" relative="1" as="geometry">
            <mxPoint x="606" y="490" as="sourcePoint" />
            <mxPoint x="605.516129032258" y="120" as="targetPoint" />
          </mxGeometry>
        </mxCell>
        <mxCell id="JFyKVZfRbhUh6i2ImdCl-1" value="requestApproval()" style="html=1;verticalAlign=bottom;endArrow=none;edgeStyle=elbowEdgeStyle;elbow=vertical;curved=0;rounded=0;startArrow=classic;startFill=1;endFill=0;" edge="1" parent="1">
          <mxGeometry relative="1" as="geometry">
            <mxPoint x="185" y="242" as="sourcePoint" />
            <Array as="points">
              <mxPoint x="350" y="242" />
            </Array>
            <mxPoint x="405" y="242" as="targetPoint" />
            <mxPoint as="offset" />
          </mxGeometry>
        </mxCell>
        <mxCell id="JFyKVZfRbhUh6i2ImdCl-2" value="approve()" style="html=1;verticalAlign=bottom;endArrow=block;edgeStyle=elbowEdgeStyle;elbow=vertical;curved=0;rounded=0;" edge="1" parent="1">
          <mxGeometry relative="1" as="geometry">
            <mxPoint x="183" y="274" as="sourcePoint" />
            <Array as="points">
              <mxPoint x="348" y="274" />
            </Array>
            <mxPoint x="403" y="274" as="targetPoint" />
            <mxPoint as="offset" />
          </mxGeometry>
        </mxCell>
        <mxCell id="PfO5n4RtA3xlp2NyJWf9-1" value="askforConfirmation()" style="html=1;verticalAlign=bottom;endArrow=none;edgeStyle=elbowEdgeStyle;elbow=vertical;curved=0;rounded=0;startArrow=classic;startFill=1;endFill=0;" edge="1" parent="1">
          <mxGeometry relative="1" as="geometry">
            <mxPoint x="184" y="310" as="sourcePoint" />
            <Array as="points">
              <mxPoint x="349" y="310" />
            </Array>
            <mxPoint x="404" y="310" as="targetPoint" />
            <mxPoint as="offset" />
          </mxGeometry>
        </mxCell>
        <mxCell id="PfO5n4RtA3xlp2NyJWf9-3" value="confirmSelection()" style="html=1;verticalAlign=bottom;endArrow=block;edgeStyle=elbowEdgeStyle;elbow=vertical;curved=0;rounded=0;" edge="1" parent="1">
          <mxGeometry relative="1" as="geometry">
            <mxPoint x="185" y="346" as="sourcePoint" />
            <Array as="points">
              <mxPoint x="350" y="346" />
            </Array>
            <mxPoint x="405" y="346" as="targetPoint" />
            <mxPoint as="offset" />
          </mxGeometry>
        </mxCell>
        <mxCell id="PfO5n4RtA3xlp2NyJWf9-4" value="changeAppointmentStatus()" style="html=1;verticalAlign=bottom;endArrow=none;edgeStyle=elbowEdgeStyle;elbow=vertical;curved=0;rounded=0;startArrow=classic;startFill=1;endFill=0;" edge="1" parent="1">
          <mxGeometry relative="1" as="geometry">
            <mxPoint x="184" y="383" as="sourcePoint" />
            <Array as="points">
              <mxPoint x="349" y="383" />
            </Array>
            <mxPoint x="404" y="383" as="targetPoint" />
            <mxPoint as="offset" />
          </mxGeometry>
        </mxCell>
        <mxCell id="PfO5n4RtA3xlp2NyJWf9-5" value="confirmation" style="html=1;verticalAlign=bottom;endArrow=open;endSize=8;edgeStyle=elbowEdgeStyle;elbow=vertical;curved=0;rounded=0;dashed=1;" edge="1" parent="1">
          <mxGeometry relative="1" as="geometry">
            <mxPoint x="183" y="420" as="targetPoint" />
            <Array as="points">
              <mxPoint x="329" y="420" />
            </Array>
            <mxPoint x="404" y="420" as="sourcePoint" />
          </mxGeometry>
        </mxCell>
        <mxCell id="PfO5n4RtA3xlp2NyJWf9-6" value="confirmation" style="html=1;verticalAlign=bottom;endArrow=none;endSize=8;edgeStyle=elbowEdgeStyle;elbow=vertical;curved=0;rounded=0;dashed=1;startArrow=open;startFill=0;endFill=0;" edge="1" parent="1">
          <mxGeometry relative="1" as="geometry">
            <mxPoint x="406" y="420" as="targetPoint" />
            <Array as="points">
              <mxPoint x="552" y="420" />
            </Array>
            <mxPoint x="607" y="420" as="sourcePoint" />
          </mxGeometry>
        </mxCell>
        <mxCell id="PfO5n4RtA3xlp2NyJWf9-7" value="changeAppointmentStatus()" style="html=1;verticalAlign=bottom;endArrow=classic;edgeStyle=elbowEdgeStyle;elbow=vertical;curved=0;rounded=0;startArrow=none;startFill=0;endFill=1;" edge="1" parent="1">
          <mxGeometry relative="1" as="geometry">
            <mxPoint x="396" y="383" as="sourcePoint" />
            <Array as="points">
              <mxPoint x="561" y="383" />
            </Array>
            <mxPoint x="606" y="383" as="targetPoint" />
            <mxPoint as="offset" />
          </mxGeometry>
        </mxCell>
      </root>
    </mxGraphModel>
  </diagram>
</mxfile>
